<svg width="376" height="144" viewBox="0 0 376 144" fill="none" xmlns="http://www.w3.org/2000/svg">
<path d="M46.7559 102.833L48.1106 114.928" stroke="#FFF9F9" stroke-width="3"/>
<path d="M46.7559 102.833L48.1106 114.928" stroke="#FFF9F9" stroke-width="3"/>
<line y1="-1.5" x2="9.734" y2="-1.5" transform="matrix(0.14035 0.990102 -0.996261 0.0863948 37.4702 26.543)" stroke="#FFF9F9" stroke-width="3"/>
<path d="M41.4331 42.603L42.1962 52.2813" stroke="#FFF9F9" stroke-width="3"/>
<line y1="-1.5" x2="9.70403" y2="-1.5" transform="matrix(0.0632959 0.997995 -0.999248 0.0387707 42.4863 57.2612)" stroke="#FFF9F9" stroke-width="3"/>
<path d="M43.3066 74.4912L43.3067 85.5406" stroke="#FFF9F9" stroke-width="3"/>
<line x1="45.5508" y1="92.874" x2="45.5508" y2="102.002" stroke="#FFF9F9" stroke-width="3"/>
<line x1="45.5508" y1="108.087" x2="45.5508" y2="116.201" stroke="#FFF9F9" stroke-width="3"/>
<line x1="45.5508" y1="120.257" x2="45.5508" y2="128.371" stroke="#FFF9F9" stroke-width="3"/>
<line x1="43.502" y1="136.484" x2="43.502" y2="143.583" stroke="#FFF9F9" stroke-width="3"/>
<line y1="-1.5" x2="10.5453" y2="-1.5" transform="matrix(0.140646 0.99006 -0.996245 0.0865795 36.2881 9.5896)" stroke="#FFF9F9" stroke-width="3"/>
<mask id="path-12-inside-1_173_47" fill="white">
<path d="M165.973 73.8153C165.973 74.5448 165.355 75.1162 164.625 75.1162C156.434 75.1162 149.793 80.1513 149.793 86.3623C149.794 92.5731 156.434 97.6084 164.625 97.6084C165.355 97.6084 165.973 98.1788 165.973 98.9084V116.317C165.973 120.736 162.391 124.317 157.973 124.317H18.4614C14.0431 124.317 10.4614 120.736 10.4614 116.317V105.421C10.4614 101.073 14.1101 97.7313 18.0192 95.8276C22.1244 93.8286 24.844 90.3369 24.8442 86.3623C24.8442 82.3875 22.1246 78.8954 18.0192 76.8961C14.1101 74.9924 10.4614 71.6504 10.4614 67.3025V62.0293C10.4614 57.611 14.0431 54.0293 18.4614 54.0293H157.973C162.391 54.0293 165.973 57.611 165.973 62.0293V73.8153Z"/>
</mask>
<path d="M165.973 73.8153C165.973 74.5448 165.355 75.1162 164.625 75.1162C156.434 75.1162 149.793 80.1513 149.793 86.3623C149.794 92.5731 156.434 97.6084 164.625 97.6084C165.355 97.6084 165.973 98.1788 165.973 98.9084V116.317C165.973 120.736 162.391 124.317 157.973 124.317H18.4614C14.0431 124.317 10.4614 120.736 10.4614 116.317V105.421C10.4614 101.073 14.1101 97.7313 18.0192 95.8276C22.1244 93.8286 24.844 90.3369 24.8442 86.3623C24.8442 82.3875 22.1246 78.8954 18.0192 76.8961C14.1101 74.9924 10.4614 71.6504 10.4614 67.3025V62.0293C10.4614 57.611 14.0431 54.0293 18.4614 54.0293H157.973C162.391 54.0293 165.973 57.611 165.973 62.0293V73.8153Z" fill="#FFA52F"/>
<path d="M164.625 75.1162L164.626 74.1162H164.625V75.1162ZM149.793 86.3623H148.793V86.3624L149.793 86.3623ZM164.625 97.6084V98.6084H164.626L164.625 97.6084ZM24.8442 86.3623L25.8442 86.3624V86.3623H24.8442ZM18.0192 95.8276L17.5814 94.9286L18.0192 95.8276ZM164.625 75.1162V74.1162C160.332 74.1162 156.407 75.4346 153.533 77.6133C150.659 79.7924 148.793 82.8762 148.793 86.3623H149.793H150.793C150.793 83.6374 152.248 81.0981 154.742 79.207C157.237 77.3153 160.728 76.1162 164.625 76.1162V75.1162ZM149.793 86.3623L148.793 86.3624C148.794 89.8484 150.66 92.9321 153.534 95.1112C156.407 97.2899 160.332 98.6084 164.625 98.6084V97.6084V96.6084C160.728 96.6084 157.237 95.4093 154.742 93.5176C152.248 91.6264 150.794 89.0871 150.793 86.3623L149.793 86.3623ZM165.973 98.9084H164.973V116.317H165.973H166.973V98.9084H165.973ZM157.973 124.317V123.317H18.4614V124.317V125.317H157.973V124.317ZM10.4614 116.317H11.4614V105.421H10.4614H9.46143V116.317H10.4614ZM18.0192 95.8276L18.457 96.7267C22.7922 94.6156 25.844 90.8317 25.8442 86.3624L24.8442 86.3623L23.8442 86.3623C23.8441 89.8421 21.4566 93.0415 17.5814 94.9286L18.0192 95.8276ZM24.8442 86.3623H25.8442C25.8442 81.8927 22.7924 78.1084 18.457 75.9971L18.0192 76.8961L17.5814 77.7952C21.4567 79.6825 23.8442 82.8822 23.8442 86.3623H24.8442ZM10.4614 67.3025H11.4614V62.0293H10.4614H9.46143V67.3025H10.4614ZM18.4614 54.0293V55.0293H157.973V54.0293V53.0293H18.4614V54.0293ZM165.973 62.0293H164.973V73.8153H165.973H166.973V62.0293H165.973ZM10.4614 62.0293H11.4614C11.4614 58.1633 14.5954 55.0293 18.4614 55.0293V54.0293V53.0293C13.4909 53.0293 9.46143 57.0587 9.46143 62.0293H10.4614ZM18.0192 76.8961L18.457 75.9971C14.6464 74.1413 11.4614 71.0552 11.4614 67.3025H10.4614H9.46143C9.46143 72.2457 13.5739 75.8435 17.5814 77.7952L18.0192 76.8961ZM10.4614 105.421H11.4614C11.4614 101.668 14.6463 98.5824 18.457 96.7267L18.0192 95.8276L17.5814 94.9286C13.5739 96.8801 9.46143 100.478 9.46143 105.421H10.4614ZM18.4614 124.317V123.317C14.5954 123.317 11.4614 120.183 11.4614 116.317H10.4614H9.46143C9.46143 121.288 13.4909 125.317 18.4614 125.317V124.317ZM164.625 97.6084L164.626 98.6084C164.85 98.6084 164.973 98.7773 164.973 98.9084H165.973H166.973C166.973 97.5803 165.86 96.6084 164.625 96.6084L164.625 97.6084ZM165.973 116.317H164.973C164.973 120.183 161.839 123.317 157.973 123.317V124.317V125.317C162.944 125.317 166.973 121.288 166.973 116.317H165.973ZM157.973 54.0293V55.0293C161.839 55.0293 164.973 58.1633 164.973 62.0293H165.973H166.973C166.973 57.0587 162.944 53.0293 157.973 53.0293V54.0293ZM164.625 75.1162L164.625 76.1162C165.861 76.1162 166.973 75.1425 166.973 73.8153H165.973H164.973C164.973 73.9472 164.849 74.1162 164.626 74.1162L164.625 75.1162Z" fill="black" mask="url(#path-12-inside-1_173_47)"/>
<line y1="-1.5" x2="9.734" y2="-1.5" transform="matrix(0.14035 0.990102 -0.996261 0.0863948 37.4702 26.543)" stroke="#FFF9F9" stroke-width="3"/>
<path d="M41.4331 42.603L42.1962 52.2813" stroke="#FFF9F9" stroke-width="3"/>
<line y1="-1.5" x2="9.70403" y2="-1.5" transform="matrix(0.0632959 0.997995 -0.999248 0.0387707 42.4863 57.2612)" stroke="#FFF9F9" stroke-width="3"/>
<path d="M43.3066 74.4912L43.3067 85.5406" stroke="#FFF9F9" stroke-width="3"/>
<line x1="45.5508" y1="92.874" x2="45.5508" y2="102.002" stroke="#FFF9F9" stroke-width="3"/>
<line x1="45.5508" y1="108.087" x2="45.5508" y2="116.201" stroke="#FFF9F9" stroke-width="3"/>
<line x1="45.5508" y1="120.257" x2="45.5508" y2="128.371" stroke="#FFF9F9" stroke-width="3"/>
<line y1="-1.5" x2="10.5453" y2="-1.5" transform="matrix(0.140646 0.99006 -0.996245 0.0865795 36.2881 9.5896)" stroke="#FFF9F9" stroke-width="3"/>
<path d="M189.209 32.1681C192.367 32.1681 195.076 32.7655 197.337 33.9601C199.599 35.1121 201.348 36.7121 202.585 38.7601C204.889 42.7281 206.041 47.5708 206.041 53.2881C206.041 61.2241 204.463 66.9628 201.305 70.5041C200.068 71.8268 198.425 72.9148 196.377 73.7681C194.329 74.6215 191.94 75.0481 189.209 75.0481C184.047 75.0481 179.865 74.4508 176.665 73.2561C177.263 68.2641 177.561 61.5015 177.561 52.9681C177.561 44.3921 177.199 38.0561 176.473 33.9601C180.143 32.7655 184.388 32.1681 189.209 32.1681ZM189.209 70.5041C196.761 70.5041 200.537 64.7655 200.537 53.2881C200.537 50.0028 200.196 47.1228 199.513 44.6481C198.831 42.1735 197.615 40.1041 195.865 38.4401C194.116 36.7761 192.004 35.9441 189.529 35.9441C187.097 35.9441 184.857 36.3495 182.809 37.1601C182.511 40.5735 182.361 45.8001 182.361 52.8401C182.361 59.8375 182.532 65.2775 182.873 69.1601C184.879 70.0561 186.991 70.5041 189.209 70.5041ZM226.42 57.7041C226.42 64.7015 226.804 70.0348 227.572 73.7041C226.036 74.1308 224.65 74.3441 223.412 74.3441C222.175 74.3441 221.3 74.3015 220.788 74.2161C221.428 68.4135 221.748 63.1015 221.748 58.2801C221.748 53.4161 221.364 48.9148 220.596 44.7761C222.047 44.3495 223.348 44.1361 224.5 44.1361C225.652 44.1361 226.612 44.2215 227.38 44.3921C226.74 51.0055 226.42 55.4428 226.42 57.7041ZM227.636 34.8561C227.636 37.5015 226.271 38.8241 223.54 38.8241C221.407 38.8241 220.34 37.7361 220.34 35.5601C220.34 32.8721 221.706 31.5281 224.436 31.5281C226.57 31.5281 227.636 32.6375 227.636 34.8561ZM252.641 43.4961C254.774 43.4961 256.63 43.8375 258.209 44.5201V43.4961C258.209 41.7895 258.55 40.5095 259.233 39.6561C259.958 38.8028 261.195 38.3761 262.945 38.3761C263.243 38.3761 263.777 38.4188 264.545 38.5041C264.63 39.1868 264.673 39.8908 264.673 40.6161C264.673 41.2988 264.545 42.3228 264.289 43.6881C263.99 43.6455 263.521 43.6241 262.881 43.6241C262.241 43.6241 261.771 43.8375 261.473 44.2641C261.174 44.6481 261.003 45.3095 260.961 46.2481L260.705 46.1841C262.539 48.0188 263.457 50.7495 263.457 54.3761C263.457 57.7041 262.795 60.4775 261.473 62.6961C259.979 65.1708 257.035 66.4081 252.641 66.4081C250.806 66.4081 249.313 66.1948 248.161 65.7681C247.265 67.3468 246.603 69.0748 246.177 70.9521C246.902 71.0801 247.67 71.1441 248.481 71.1441C249.291 71.1441 250.913 70.9948 253.345 70.6961C255.777 70.3975 257.526 70.2481 258.593 70.2481C260.811 70.2481 262.603 70.8028 263.969 71.9121C265.334 73.0215 266.017 74.7281 266.017 77.0321C266.017 79.3361 265.27 81.3415 263.777 83.0481C261.174 86.0348 257.121 87.5281 251.617 87.5281C247.905 87.5281 245.067 87.0588 243.105 86.1201C241.142 85.1815 240.161 83.4321 240.161 80.8721C240.161 80.1895 240.203 79.6135 240.289 79.1441C241.185 78.8028 242.102 78.6321 243.041 78.6321C244.022 78.6321 245.067 78.7175 246.177 78.8881C246.091 79.2295 246.049 79.7841 246.049 80.5521C246.049 81.3628 246.539 82.1308 247.521 82.8561C248.502 83.6241 250.166 84.0081 252.513 84.0081C254.859 84.0081 256.865 83.5388 258.529 82.6001C260.235 81.6615 261.089 80.2535 261.089 78.3761C261.089 76.2855 259.958 75.2401 257.697 75.2401C256.587 75.2401 254.838 75.3681 252.449 75.6241C250.059 75.9228 248.161 76.0721 246.753 76.0721C245.387 76.0721 244.235 75.7735 243.297 75.1761C242.401 74.6215 241.953 73.7468 241.953 72.5521C241.953 70.2908 243.041 67.5175 245.217 64.2321C242.955 62.3975 241.825 59.1121 241.825 54.3761C241.825 47.1228 245.43 43.4961 252.641 43.4961ZM247.009 54.4401C247.009 59.4748 248.886 61.9921 252.641 61.9921C256.395 61.9921 258.273 59.4748 258.273 54.4401C258.273 49.4055 256.395 46.8881 252.641 46.8881C248.886 46.8881 247.009 49.4055 247.009 54.4401ZM285.845 57.7041C285.845 64.7015 286.229 70.0348 286.997 73.7041C285.461 74.1308 284.075 74.3441 282.837 74.3441C281.6 74.3441 280.725 74.3015 280.213 74.2161C280.853 68.4135 281.173 63.1015 281.173 58.2801C281.173 53.4161 280.789 48.9148 280.021 44.7761C281.472 44.3495 282.773 44.1361 283.925 44.1361C285.077 44.1361 286.037 44.2215 286.805 44.3921C286.165 51.0055 285.845 55.4428 285.845 57.7041ZM287.061 34.8561C287.061 37.5015 285.696 38.8241 282.965 38.8241C280.832 38.8241 279.765 37.7361 279.765 35.5601C279.765 32.8721 281.131 31.5281 283.861 31.5281C285.995 31.5281 287.061 32.6375 287.061 34.8561Z" fill="black"/>
<path d="M146.424 121.562C146.083 121.57 145.908 121.403 145.9 121.062C145.9 121.062 145.9 121.041 145.898 120.998C145.898 120.998 145.919 120.976 145.961 120.933C146.285 120.2 146.502 119.469 146.612 118.741C146.722 117.97 146.787 117.136 146.808 116.239C146.884 115.853 147.072 115.678 147.371 115.714C147.44 115.029 147.625 113.851 147.926 112.18C148.227 110.508 148.565 108.558 148.938 106.33C149.352 104.059 149.765 101.701 150.175 99.2591C150.629 96.8157 151.042 94.5012 151.416 92.3158C151.789 90.0877 152.085 88.1815 152.303 86.5972C152.52 85.013 152.623 83.9649 152.611 83.4531C152.395 83.3302 151.838 83.258 150.941 83.2365C150.044 83.215 149.02 83.2179 147.868 83.2451C146.589 83.2754 145.267 83.328 143.903 83.4029C142.539 83.4778 141.303 83.5497 140.195 83.6186C139.129 83.6438 138.361 83.6619 137.892 83.673C137.551 83.6811 137.376 83.5145 137.368 83.1733C137.355 82.6614 137.689 82.3335 138.368 82.1894C139.047 82.0026 139.535 81.8844 139.832 81.8347C140.471 81.7769 141.473 81.7319 142.838 81.6996C144.202 81.6247 145.694 81.568 147.315 81.5297C148.935 81.4487 150.449 81.3916 151.856 81.3583C153.306 81.324 154.394 81.2983 155.119 81.2812L169.451 80.9423C169.792 80.9343 169.966 81.0582 169.972 81.3141C169.982 81.698 169.755 82.0235 169.292 82.2905C168.87 82.5138 168.511 82.6504 168.213 82.7001C167.916 82.7498 167.49 82.8025 166.937 82.8583C166.426 82.9131 165.872 82.9475 165.275 82.9616C164.422 82.9818 163.419 82.9842 162.266 82.9687C161.113 82.9533 160.046 82.9572 159.065 82.9804C158.34 82.9975 157.701 83.034 157.147 83.0897C156.637 83.1445 156.276 83.2384 156.066 83.3714C155.758 84.7444 155.394 86.4601 154.974 88.5186C154.554 90.5771 154.116 92.7854 153.661 95.1435C153.205 97.459 152.769 99.7526 152.355 102.024C151.983 104.295 151.627 106.352 151.287 108.195C150.99 110.037 150.747 111.473 150.559 112.502C150.299 114.13 150.102 115.692 149.968 117.189C149.875 118.642 149.833 119.561 149.842 119.945C149.846 120.115 149.637 120.291 149.215 120.472C148.792 120.652 148.348 120.812 147.882 120.951C147.416 121.09 147.098 121.183 146.928 121.23C146.848 121.445 146.68 121.556 146.424 121.562ZM173.154 94.4266C172.983 94.4306 172.808 94.264 172.629 93.9268C172.493 93.5886 172.378 93.2286 172.283 92.8467C172.23 92.4212 172.202 92.1231 172.198 91.9525C172.196 91.8672 172.193 91.7606 172.19 91.6326C172.228 91.461 172.311 91.3523 172.438 91.3066C173.161 91.2042 173.841 91.0601 174.476 90.8743C175.155 90.6876 175.832 90.4795 176.51 90.2501C176.594 90.2054 176.743 90.1806 176.956 90.1755C177.297 90.1675 177.473 90.3554 177.482 90.7393C177.502 91.5923 177.114 92.3057 176.317 92.8794C175.855 93.1891 175.351 93.5211 174.805 93.8754C174.301 94.2288 173.751 94.4125 173.154 94.4266ZM167.505 120.359C166.866 120.374 166.537 120.041 166.521 119.358C166.503 118.633 166.609 117.692 166.837 116.534C167.064 115.334 167.334 114.132 167.646 112.93C167.959 111.728 168.192 110.783 168.346 110.097C168.385 109.925 168.502 109.474 168.698 108.744C168.892 107.971 169.107 107.134 169.341 106.232C169.575 105.33 169.77 104.536 169.924 103.85C170.12 103.119 170.216 102.69 170.213 102.562C170.208 102.349 170.075 102.16 169.815 101.996C169.598 101.83 169.486 101.641 169.481 101.427C169.478 101.299 169.496 101.171 169.536 101.042C169.576 100.913 169.616 100.805 169.656 100.719C169.779 100.503 170.092 100.218 170.596 99.8646C171.1 99.5112 171.626 99.2 172.174 98.931C172.764 98.6183 173.165 98.4594 173.379 98.4544C173.507 98.4514 173.593 98.4707 173.636 98.5123C173.681 98.5966 173.706 98.7454 173.711 98.9587C173.72 99.3426 173.628 99.9209 173.433 100.694C173.281 101.466 173.067 102.324 172.791 103.27C172.556 104.171 172.321 105.009 172.083 105.783C171.846 106.557 171.668 107.137 171.549 107.524C171.351 108.169 171.075 109.093 170.72 110.297C170.365 111.5 170.052 112.702 169.782 113.904C169.513 115.105 169.386 116.047 169.402 116.729C169.404 116.815 169.43 117.006 169.48 117.304C169.529 117.559 169.639 117.684 169.809 117.68C170.023 117.675 170.402 117.495 170.949 117.141C171.537 116.743 172.146 116.366 172.778 116.01C173.41 115.653 173.896 115.471 174.237 115.463C174.408 115.459 174.516 115.499 174.56 115.583C174.564 115.754 174.294 116.059 173.75 116.499C173.205 116.896 172.617 117.315 171.988 117.757C171.4 118.155 171.002 118.463 170.794 118.681C170.377 119.075 169.873 119.45 169.285 119.805C168.696 120.16 168.103 120.345 167.505 120.359ZM188.082 119.873C186.887 119.901 186.027 119.623 185.501 119.038C184.974 118.453 184.697 117.584 184.67 116.433C184.662 116.134 184.656 115.857 184.65 115.601C184.685 115.301 184.72 115.002 184.756 114.702C184.824 113.975 184.971 112.99 185.197 111.747C185.466 110.503 185.796 109.172 186.189 107.754C186.623 106.293 187.101 104.895 187.624 103.559C188.188 102.18 188.801 101.035 189.462 100.123C190.164 99.1672 190.918 98.5732 191.723 98.3408C192.741 98.0606 193.755 97.6526 194.767 97.1165C195.778 96.5804 196.817 96.2998 197.883 96.2746C198.907 96.2504 199.555 96.5765 199.827 97.2529C200.1 97.9293 200.246 98.6941 200.267 99.5472C200.291 100.528 199.924 101.241 199.166 101.686C198.999 101.818 198.788 101.951 198.536 102.085C198.324 102.175 198.091 102.223 197.835 102.229C197.536 102.236 197.384 102.112 197.378 101.856C197.372 101.6 197.408 101.343 197.487 101.085C197.566 100.827 197.602 100.549 197.595 100.251C197.584 99.7813 197.464 99.2293 197.235 98.5946C197.048 97.9161 196.635 97.5845 195.995 97.5996C195.525 97.6107 195.019 97.8361 194.475 98.2757C193.929 98.6727 193.49 99.0246 193.156 99.3312C192.529 99.9008 191.871 100.919 191.181 102.387C190.532 103.81 189.93 105.382 189.374 107.103C188.818 108.823 188.367 110.477 188.021 112.064C187.718 113.65 187.577 114.891 187.599 115.787C187.615 116.47 187.759 117.128 188.031 117.761C188.301 118.353 188.841 118.639 189.652 118.619C190.804 118.592 191.88 118.119 192.883 117.199C193.926 116.235 194.882 115.167 195.75 113.994C196.617 112.778 197.34 111.78 197.918 110.998L197.982 110.996C198.153 110.992 198.24 111.076 198.245 111.246C198.291 111.416 198.316 111.543 198.318 111.629C198.335 112.354 198.181 113.04 197.855 113.688C197.529 114.336 197.116 114.901 196.616 115.382C195.49 116.475 194.191 117.488 192.72 118.419C191.291 119.349 189.745 119.834 188.082 119.873ZM207.469 120.183C207.085 120.192 206.889 120.047 206.882 119.748L207.655 117.298C207.854 116.695 207.989 116.095 208.06 115.495C208.131 114.896 208.244 114.296 208.401 113.695C208.669 112.451 208.939 111.228 209.208 110.027C209.478 108.825 209.769 107.624 210.082 106.421C209.991 106.21 209.768 105.788 209.411 105.157C209.054 104.525 208.873 104.102 208.868 103.889C208.846 102.951 209.325 102.47 210.306 102.447C210.604 102.44 210.84 102.498 211.014 102.622C211.519 100.561 212.084 98.3289 212.709 95.9241C213.334 93.5193 214.109 91.1537 215.035 88.8271C215.96 86.5006 217.147 84.4026 218.596 82.5332C220.045 80.6638 221.823 79.2133 223.932 78.1818C224.439 77.9565 224.968 77.7733 225.52 77.6322C226.07 77.4485 226.623 77.35 227.177 77.3369C227.689 77.3248 228.289 77.4173 228.976 77.6145C229.707 77.8106 230.333 78.1159 230.855 78.5303C231.376 78.9021 231.644 79.4079 231.66 80.0477C231.666 80.3037 231.607 80.4971 231.482 80.6281C231.44 80.6718 231.273 80.8251 230.981 81.0881C230.687 81.3084 230.394 81.5287 230.1 81.7491C229.807 81.9694 229.618 82.1019 229.534 82.1466C229.446 82.0633 229.402 82.0003 229.401 81.9576C229.398 81.8297 229.459 81.7002 229.584 81.5692C229.709 81.4382 229.769 81.2874 229.765 81.1168C229.755 80.6903 229.511 80.3119 229.033 79.9818C228.555 79.609 228.015 79.323 227.412 79.1239C226.809 78.8821 226.315 78.7657 225.931 78.7748C224.652 78.805 223.47 79.3451 222.385 80.395C221.3 81.4023 220.308 82.7488 219.41 84.4345C218.553 86.0765 217.765 87.8877 217.044 89.8679C216.324 91.8482 215.689 93.8264 215.139 95.8026C214.632 97.7778 214.185 99.6022 213.799 101.276C213.411 102.907 213.101 104.194 212.867 105.139C212.96 105.435 213.03 105.69 213.078 105.902C213.168 106.113 213.214 106.219 213.214 106.219C214.536 104.438 216.072 102.652 217.822 100.861C219.614 99.0684 221.411 97.5108 223.215 96.1878C223.551 95.9665 223.975 95.8498 224.486 95.8377C224.785 95.8306 225.107 95.887 225.451 96.0069C225.837 96.0832 226.034 96.3132 226.044 96.6971C226.052 97.0384 225.806 97.4496 225.305 97.9309C224.805 98.4122 224.239 98.8524 223.609 99.2514C223.021 99.6494 222.601 99.9367 222.349 100.113C220.922 101.129 219.434 102.252 217.885 103.484C216.336 104.715 214.957 105.943 213.749 107.167C214.194 107.924 214.792 108.849 215.544 109.941C216.295 110.99 217.088 112.038 217.925 113.086C218.802 114.089 219.655 114.944 220.483 115.65C221.353 116.312 222.129 116.635 222.811 116.619C223.451 116.604 223.935 116.336 224.264 115.817C224.636 115.296 224.899 114.713 225.054 114.069C225.251 113.382 225.387 112.802 225.461 112.331C225.501 112.245 225.539 112.052 225.575 111.752C225.652 111.409 225.776 111.236 225.946 111.231C226.159 111.226 226.29 111.309 226.336 111.478C226.426 111.647 226.472 111.817 226.477 111.987C226.479 112.072 226.459 112.158 226.419 112.245C226.421 112.33 226.423 112.415 226.425 112.501C226.359 113.313 226.275 114.233 226.171 115.259C226.111 116.285 225.768 117.125 225.144 117.78C224.436 118.523 223.613 118.905 222.675 118.927C221.736 118.949 220.748 118.652 219.709 118.037C218.711 117.378 217.731 116.547 216.768 115.546C215.846 114.5 215.009 113.411 214.256 112.276C213.502 111.099 212.879 110.025 212.386 109.055C212.185 109.572 211.944 110.218 211.664 110.993C211.427 111.767 211.211 112.54 211.016 113.313C210.82 114.043 210.684 114.601 210.608 114.987C210.786 115.282 210.88 115.642 210.89 116.069C210.909 116.836 210.797 117.501 210.554 118.061C210.311 118.579 209.874 119.038 209.243 119.437C208.991 119.613 208.718 119.769 208.422 119.904C208.128 120.082 207.81 120.175 207.469 120.183ZM249.574 103.823C249.361 103.828 249.251 103.724 249.246 103.511C249.243 103.383 249.262 103.276 249.303 103.189C249.542 102.501 249.718 101.856 249.832 101.256C249.987 100.612 250.057 99.9491 250.04 99.2667C250.034 99.0107 250.004 98.67 249.951 98.2445C249.94 97.7753 249.845 97.3507 249.665 96.9709C249.527 96.59 249.267 96.4041 248.883 96.4132C248.712 96.4172 248.564 96.4421 248.437 96.4878C248.309 96.4908 248.159 96.4943 247.989 96.4984C247.562 96.5085 247.345 96.3429 247.337 96.0016C247.332 95.831 247.521 95.6772 247.902 95.5402C248.325 95.4021 248.77 95.2849 249.238 95.1885C249.705 95.0921 250.024 95.0419 250.194 95.0378C251.261 95.0126 251.931 95.4022 252.207 96.2066C252.524 96.9673 252.693 97.7742 252.713 98.6273C252.733 99.4377 252.604 100.294 252.327 101.197C252.093 102.099 251.619 102.793 250.905 103.279C250.738 103.411 250.527 103.544 250.275 103.678C250.021 103.77 249.787 103.818 249.574 103.823ZM240.393 118.636C239.156 118.665 238.274 118.387 237.748 117.802C237.264 117.216 237.008 116.347 236.981 115.196C236.95 113.916 237.068 112.633 237.336 111.346C237.603 110.06 237.936 108.814 238.334 107.61L237.763 107.815C237.546 107.692 237.435 107.482 237.427 107.183C237.418 106.799 237.58 106.433 237.913 106.083C238.288 105.69 238.666 105.468 239.049 105.416C239.29 104.77 239.632 103.93 240.077 102.895C240.521 101.86 241.03 100.824 241.602 99.7862C242.217 98.7474 242.901 97.8777 243.652 97.1771C244.403 96.4764 245.227 96.1155 246.122 96.0944C246.506 96.0853 246.702 96.2514 246.711 96.5926C246.714 96.7206 246.633 96.8932 246.467 97.1105C246.301 97.2852 246.176 97.4161 246.092 97.5035C245.55 98.0284 245.035 98.7662 244.545 99.7167C244.055 100.625 243.609 101.574 243.206 102.565C242.802 103.514 242.459 104.354 242.178 105.086C243.368 104.887 244.538 104.732 245.688 104.619C246.88 104.505 248.074 104.435 249.268 104.406C249.396 104.403 249.716 104.417 250.229 104.448C250.741 104.436 251.318 104.465 251.96 104.535C252.601 104.562 253.136 104.635 253.565 104.753C254.038 104.87 254.276 105.035 254.282 105.248C254.286 105.419 254.182 105.528 253.969 105.576C253.8 105.622 253.672 105.647 253.587 105.649C253.033 105.662 252.498 105.632 251.984 105.558C251.471 105.485 250.936 105.455 250.382 105.468C248.932 105.503 247.463 105.644 245.975 105.893C244.487 106.141 243.022 106.432 241.579 106.765C241.179 107.884 240.783 109.152 240.39 110.57C240.04 111.987 239.88 113.313 239.91 114.55C239.926 115.233 240.07 115.891 240.342 116.525C240.612 117.116 241.152 117.402 241.963 117.383C243.114 117.355 244.191 116.882 245.193 115.962C246.237 114.998 247.193 113.93 248.061 112.757C248.928 111.542 249.651 110.543 250.229 109.761L250.293 109.76C250.464 109.756 250.551 109.839 250.555 110.009C250.602 110.179 250.627 110.307 250.629 110.392C250.646 111.117 250.492 111.803 250.166 112.451C249.839 113.057 249.426 113.621 248.927 114.145C247.801 115.239 246.502 116.251 245.031 117.182C243.602 118.112 242.056 118.597 240.393 118.636ZM264.977 117.543C264.636 117.551 264.292 117.452 263.945 117.247C263.642 117.041 263.485 116.724 263.474 116.298C263.466 115.957 263.521 115.593 263.64 115.206C263.758 114.776 263.834 114.412 263.87 114.112C264.527 111.28 265.227 108.468 265.971 105.676C266.756 102.841 267.52 100.027 268.264 97.2354L266.472 97.2777C266.344 97.2807 266.217 97.3051 266.09 97.3508C265.962 97.3538 265.834 97.3568 265.706 97.3598L265.45 97.3659C265.408 97.3669 265.387 97.3887 265.388 97.4314C265.129 97.3095 264.996 97.1206 264.99 96.8646C264.985 96.6514 265.023 96.4797 265.106 96.3498C265.231 96.2188 265.356 96.1091 265.482 96.0208C265.69 95.8025 265.943 95.6684 266.24 95.6187C266.581 95.568 266.9 95.5391 267.199 95.5321C267.454 95.526 267.711 95.5413 267.968 95.5779C268.266 95.5708 268.544 95.5643 268.8 95.5582C268.918 95.1713 269.076 94.6341 269.273 93.9466C269.469 93.2164 269.643 92.4868 269.796 91.7576C269.949 91.0285 270.022 90.4933 270.014 90.152C270.008 89.9388 269.857 89.857 269.56 89.9067C269.305 89.9554 269.154 89.9163 269.109 89.7893C269.389 89.0145 269.626 88.2406 269.821 87.4678C270.057 86.6513 270.272 85.8354 270.466 85.0199C270.542 84.634 270.854 84.3065 271.403 84.0375C271.95 83.7258 272.415 83.5654 272.799 83.5563C273.183 83.5473 273.442 83.6692 273.576 83.9221C273.709 84.1323 273.78 84.4081 273.788 84.7493C273.8 85.2185 273.689 85.9466 273.457 86.9337C273.225 87.9208 272.952 88.9942 272.638 90.154C272.324 91.2711 272.008 92.3242 271.69 93.3133C271.415 94.3014 271.198 95.032 271.039 95.5053L278.205 95.3359C278.248 95.3348 278.335 95.3968 278.466 95.5218C278.47 95.6924 278.175 95.8487 277.581 95.9908C277.028 96.0892 276.709 96.1394 276.624 96.1415C275.647 96.3353 274.648 96.5083 273.628 96.6604C272.606 96.7699 271.584 96.8794 270.563 96.989C270.326 97.8054 269.97 98.9662 269.494 100.471C269.061 101.975 268.588 103.587 268.075 105.306C267.604 107.024 267.195 108.634 266.847 110.136C266.498 111.596 266.332 112.688 266.35 113.413C266.359 113.797 266.433 114.201 266.571 114.624C266.751 115.004 267.075 115.188 267.544 115.177C268.184 115.162 268.84 114.912 269.511 114.427C270.225 113.94 270.894 113.391 271.52 112.779C272.188 112.165 272.751 111.619 273.209 111.138C273.667 110.658 273.981 110.416 274.151 110.412C274.365 110.407 274.475 110.554 274.482 110.852C274.484 110.937 274.468 111.13 274.432 111.43C274.439 111.728 274.336 111.88 274.123 111.885C273.707 112.322 273.101 112.869 272.306 113.528C271.553 114.144 270.714 114.761 269.79 115.38C268.908 115.956 268.024 116.468 267.138 116.915C266.294 117.32 265.574 117.529 264.977 117.543Z" fill="black"/>
<mask id="path-24-inside-2_173_47" fill="white">
<path d="M21.4664 82.1292C17.6269 82.6419 13.8239 79.9993 12.9759 76.2292L10.9476 67.2121C10.2333 64.0362 12.0243 61.1128 14.2465 58.9231C16.9788 56.2307 18.2457 52.4127 17.2985 48.4626C16.3808 44.6358 13.5839 41.5137 9.96061 39.745C6.89841 38.2503 3.91516 35.9537 3.19807 32.7667L2.29001 28.731C1.44308 24.967 3.8624 21.5031 7.69585 20.9912L146.503 2.45509C149.145 2.10225 151.762 3.92073 152.346 6.51515C152.818 8.61246 151.756 10.5836 150.112 11.843C146.304 14.76 144.387 19.3351 145.524 24.0744C146.503 28.1567 149.537 31.4832 153.491 33.3749C156.443 34.7872 159.216 37.0488 159.904 40.1103L163.512 56.1437C164.358 59.9077 161.939 63.3715 158.106 63.8834L21.4664 82.1292Z"/>
</mask>
<path d="M21.4664 82.1292C17.6269 82.6419 13.8239 79.9993 12.9759 76.2292L10.9476 67.2121C10.2333 64.0362 12.0243 61.1128 14.2465 58.9231C16.9788 56.2307 18.2457 52.4127 17.2985 48.4626C16.3808 44.6358 13.5839 41.5137 9.96061 39.745C6.89841 38.2503 3.91516 35.9537 3.19807 32.7667L2.29001 28.731C1.44308 24.967 3.8624 21.5031 7.69585 20.9912L146.503 2.45509C149.145 2.10225 151.762 3.92073 152.346 6.51515C152.818 8.61246 151.756 10.5836 150.112 11.843C146.304 14.76 144.387 19.3351 145.524 24.0744C146.503 28.1567 149.537 31.4832 153.491 33.3749C156.443 34.7872 159.216 37.0488 159.904 40.1103L163.512 56.1437C164.358 59.9077 161.939 63.3715 158.106 63.8834L21.4664 82.1292Z" fill="#FF4F6D"/>
<path d="M17.2985 48.4626L18.2879 48.3174V48.3174L17.2985 48.4626ZM145.524 24.0744L144.534 24.2196L144.534 24.2196L145.524 24.0744ZM153.491 33.3749L153.879 32.5004L153.491 33.3749ZM2.29001 28.731L3.28261 28.5995L2.29001 28.731ZM7.69585 20.9912L7.47552 20.017L7.69585 20.9912ZM9.96061 39.745L10.3566 38.8745L9.96061 39.745ZM3.19807 32.7667L2.20548 32.8981L3.19807 32.7667ZM10.9476 67.2121L9.95503 67.3435L10.9476 67.2121ZM14.2465 58.9231L15.0005 59.6409L14.2465 58.9231ZM12.9759 76.2292L13.9685 76.0978L12.9759 76.2292ZM21.4664 82.1292L21.2461 81.1549L21.4664 82.1292ZM12.9759 76.2292L13.9685 76.0978L11.9402 67.0807L10.9476 67.2121L9.95503 67.3435L11.9833 76.3606L12.9759 76.2292ZM14.2465 58.9231L15.0005 59.6409C17.9301 56.7541 19.3204 52.6234 18.2879 48.3174L17.2985 48.4626L16.3091 48.6077C17.1709 52.202 16.0275 55.7073 13.4926 58.2052L14.2465 58.9231ZM17.2985 48.4626L18.2879 48.3174C17.2877 44.1464 14.2441 40.7721 10.3566 38.8745L9.96061 39.745L9.56464 40.6156C12.9238 42.2553 15.474 45.1252 16.3091 48.6077L17.2985 48.4626ZM3.19807 32.7667L4.19067 32.6352L3.28261 28.5995L2.29001 28.731L1.29742 28.8624L2.20548 32.8981L3.19807 32.7667ZM7.69585 20.9912L7.91618 21.9654L146.723 3.42933L146.503 2.45509L146.282 1.48086L7.47552 20.017L7.69585 20.9912ZM150.112 11.843L149.441 11.0529C145.398 14.1505 143.298 19.0654 144.534 24.2196L145.524 24.0744L146.513 23.9293C145.476 19.6048 147.211 15.3694 150.783 12.6332L150.112 11.843ZM145.524 24.0744L144.534 24.2196C145.598 28.6563 148.889 32.2331 153.103 34.2493L153.491 33.3749L153.879 32.5004C150.185 30.7333 147.407 27.6571 146.513 23.9292L145.524 24.0744ZM159.904 40.1103L158.912 40.2417L162.519 56.2752L163.512 56.1437L164.504 56.0123L160.897 39.9789L159.904 40.1103ZM158.106 63.8834L157.885 62.9091L21.2461 81.1549L21.4664 82.1292L21.6868 83.1034L158.326 64.8576L158.106 63.8834ZM163.512 56.1437L162.519 56.2752C163.245 59.5014 161.171 62.4704 157.885 62.9091L158.106 63.8834L158.326 64.8576C162.707 64.2726 165.472 60.314 164.504 56.0123L163.512 56.1437ZM153.491 33.3749L153.103 34.2493C155.94 35.6065 158.33 37.6561 158.912 40.2417L159.904 40.1103L160.897 39.9789C160.101 36.4414 156.946 33.9679 153.879 32.5004L153.491 33.3749ZM152.346 6.51515L151.353 6.64659C151.719 8.27469 150.909 9.92815 149.441 11.0529L150.112 11.843L150.783 12.6332C152.602 11.239 153.916 8.95022 153.338 6.38372L152.346 6.51515ZM2.29001 28.731L3.28261 28.5995C2.55667 25.3732 4.63038 22.4042 7.91618 21.9654L7.69585 20.9912L7.47552 20.017C3.09444 20.602 0.329507 24.5607 1.29742 28.8624L2.29001 28.731ZM9.96061 39.745L10.3566 38.8745C7.37175 37.4175 4.79664 35.3284 4.19067 32.6352L3.19807 32.7667L2.20548 32.8981C3.03369 36.579 6.42508 39.083 9.56464 40.6156L9.96061 39.745ZM10.9476 67.2121L11.9402 67.0807C11.3366 64.397 12.8361 61.7737 15.0005 59.6409L14.2465 58.9231L13.4926 58.2052C11.2125 60.452 9.12996 63.6755 9.95503 67.3435L10.9476 67.2121ZM146.503 2.45509L146.723 3.42933C148.817 3.14972 150.89 4.59072 151.353 6.64659L152.346 6.51515L153.338 6.38372C152.633 3.25074 149.473 1.05477 146.282 1.48086L146.503 2.45509ZM12.9759 76.2292L11.9833 76.3606C12.9525 80.6692 17.2987 83.6893 21.6868 83.1034L21.4664 82.1292L21.2461 81.1549C17.9551 81.5944 14.6954 79.3293 13.9685 76.0978L12.9759 76.2292Z" fill="black" mask="url(#path-24-inside-2_173_47)"/>
<line y1="-1.5" x2="9.734" y2="-1.5" transform="matrix(0.14035 0.990102 -0.996261 0.0863948 37.4702 26.543)" stroke="#FFF9F9" stroke-width="3"/>
<path d="M41.4331 42.603L42.1962 52.2813" stroke="#FFF9F9" stroke-width="3"/>
<line y1="-1.5" x2="9.70403" y2="-1.5" transform="matrix(0.0632959 0.997995 -0.999248 0.0387707 42.4863 57.2612)" stroke="#FFF9F9" stroke-width="3"/>
<path d="M43.3066 74.4912L43.3067 85.5406" stroke="#FFF9F9" stroke-width="3"/>
<line x1="45.5508" y1="92.874" x2="45.5508" y2="102.002" stroke="#FFF9F9" stroke-width="3"/>
<line x1="45.5508" y1="108.087" x2="45.5508" y2="116.201" stroke="#FFF9F9" stroke-width="3"/>
<line x1="45.5508" y1="120.257" x2="45.5508" y2="128.371" stroke="#FFF9F9" stroke-width="3"/>
<line y1="-1.5" x2="10.5453" y2="-1.5" transform="matrix(0.140646 0.99006 -0.996245 0.0865795 36.2881 9.5896)" stroke="#FFF9F9" stroke-width="3"/>
<path d="M127.042 50.2805L131.182 59.0404L144.581 59.0405L133.741 64.4544L137.881 73.2143L127.042 67.8004L116.202 73.2143L120.343 64.4544L109.503 59.0405L122.902 59.0404L127.042 50.2805Z" fill="#D9D9D9"/>
</svg>
